<svg width="900" height="620" viewBox="0 0 900 620" fill="none" xmlns="http://www.w3.org/2000/svg">
  <rect width="900" height="620" rx="34" fill="#FFFFFF"/>
  <rect x="38" y="38" width="824" height="544" rx="30" fill="#FFF7ED" stroke="#1E1B4B" stroke-opacity="0.10"/>
  <circle cx="780" cy="105" r="76" fill="#EEF2FF"/>
  <circle cx="112" cy="520" r="84" fill="#FFF1F2"/>
  <rect x="76" y="78" width="226" height="44" rx="12" fill="#F97316"/>
  <text x="102" y="108" fill="#FFFFFF" font-family="Arial, sans-serif" font-size="20" font-weight="900">FREE CHECKLIST</text>
  <text x="82" y="190" fill="#1E1B4B" font-family="Arial, sans-serif" font-size="54" font-weight="900">10 Website Fixes</text>
  <text x="82" y="250" fill="#2563EB" font-family="Arial, sans-serif" font-size="54" font-weight="900">To Increase Leads</text>
  <g font-family="Arial, sans-serif" font-size="25" font-weight="800" fill="#374151">
    <circle cx="104" cy="328" r="14" fill="#10B981"/>
    <path d="M98 328.5L102.5 333L111.5 323" stroke="#FFFFFF" stroke-width="4" stroke-linecap="round" stroke-linejoin="round"/>
    <text x="138" y="337">Sharper hero offer</text>
    <circle cx="104" cy="378" r="14" fill="#10B981"/>
    <path d="M98 378.5L102.5 383L111.5 373" stroke="#FFFFFF" stroke-width="4" stroke-linecap="round" stroke-linejoin="round"/>
    <text x="138" y="387">One-click WhatsApp CTA</text>
    <circle cx="104" cy="428" r="14" fill="#10B981"/>
    <path d="M98 428.5L102.5 433L111.5 423" stroke="#FFFFFF" stroke-width="4" stroke-linecap="round" stroke-linejoin="round"/>
    <text x="138" y="437">Proof near every CTA</text>
    <circle cx="104" cy="478" r="14" fill="#10B981"/>
    <path d="M98 478.5L102.5 483L111.5 473" stroke="#FFFFFF" stroke-width="4" stroke-linecap="round" stroke-linejoin="round"/>
    <text x="138" y="487">Faster follow-up flow</text>
  </g>
  <rect x="604" y="318" width="198" height="176" rx="26" fill="#1E1B4B"/>
  <text x="655" y="392" fill="#FACC15" font-family="Arial, sans-serif" font-size="58" font-weight="900">RX</text>
  <text x="642" y="435" fill="#FFFFFF" font-family="Arial, sans-serif" font-size="21" font-weight="900">Growth Audit</text>
  <rect x="620" y="456" width="166" height="12" rx="6" fill="#10B981"/>
</svg>
