<svg width="980" height="760" viewBox="0 0 980 760" fill="none" xmlns="http://www.w3.org/2000/svg">
  <rect width="980" height="760" rx="36" fill="#26302F"/>
  <rect width="980" height="150" rx="36" fill="#E7BD65"/>
  <text x="52" y="92" fill="#26302F" font-family="Arial, sans-serif" font-size="32" font-weight="900">Growth Command Center</text>
  <rect x="52" y="195" width="390" height="190" rx="22" fill="#FFFFFF"/>
  <text x="86" y="252" fill="#6E7F78" font-family="Arial, sans-serif" font-size="22" font-weight="800">Projected leads</text>
  <text x="84" y="337" fill="#12201C" font-family="Arial, sans-serif" font-size="82" font-weight="900">216</text>
  <rect x="480" y="195" width="448" height="190" rx="22" fill="#FFFFFF" fill-opacity="0.1" stroke="#FFFFFF" stroke-opacity="0.12"/>
  <text x="520" y="252" fill="#FFFFFF" fill-opacity="0.72" font-family="Arial, sans-serif" font-size="22" font-weight="800">Pipeline health</text>
  <rect x="520" y="290" width="338" height="16" rx="8" fill="#FFFFFF" fill-opacity="0.14"/>
  <rect x="520" y="290" width="290" height="16" rx="8" fill="#E7BD65"/>
  <rect x="520" y="332" width="338" height="16" rx="8" fill="#FFFFFF" fill-opacity="0.14"/>
  <rect x="520" y="332" width="245" height="16" rx="8" fill="#E7BD65"/>
  <rect x="52" y="425" width="876" height="150" rx="22" fill="#151B1A"/>
  <text x="86" y="488" fill="#FFFFFF" fill-opacity="0.68" font-family="Arial, sans-serif" font-size="22" font-weight="800">Estimated extra revenue</text>
  <text x="86" y="548" fill="#E7BD65" font-family="Arial, sans-serif" font-size="54" font-weight="900">Rs 11,52,000</text>
  <rect x="52" y="615" width="260" height="86" rx="18" fill="#FFFFFF" fill-opacity="0.1"/>
  <rect x="360" y="615" width="260" height="86" rx="18" fill="#FFFFFF" fill-opacity="0.1"/>
  <rect x="668" y="615" width="260" height="86" rx="18" fill="#FFFFFF" fill-opacity="0.1"/>
  <text x="86" y="668" fill="#E7BD65" font-family="Arial, sans-serif" font-size="34" font-weight="900">3.2x</text>
  <text x="394" y="668" fill="#E7BD65" font-family="Arial, sans-serif" font-size="34" font-weight="900">62%</text>
  <text x="702" y="668" fill="#E7BD65" font-family="Arial, sans-serif" font-size="34" font-weight="900">24h</text>
</svg>
