<svg width="1200" height="630" viewBox="0 0 1200 630" fill="none" xmlns="http://www.w3.org/2000/svg">
  <rect width="1200" height="630" fill="#FFF7ED"/>
  <circle cx="1020" cy="92" r="190" fill="#EEF2FF"/>
  <circle cx="138" cy="536" r="230" fill="#FFF1F2"/>
  <rect x="70" y="70" width="1060" height="490" rx="30" fill="#1E1B4B"/>
  <rect x="110" y="110" width="270" height="76" rx="18" fill="#F97316"/>
  <text x="142" y="158" fill="#FFFFFF" font-family="Arial, sans-serif" font-size="32" font-weight="900">RiyanshX</text>
  <text x="110" y="260" fill="#FFFFFF" font-family="Arial, sans-serif" font-size="72" font-weight="900">Leads lao. Calls badhao.</text>
  <text x="110" y="340" fill="#FACC15" font-family="Arial, sans-serif" font-size="72" font-weight="900">Business ko visible banao.</text>
  <text x="112" y="415" fill="#CBD5E1" font-family="Arial, sans-serif" font-size="30" font-weight="700">Websites. Ads. WhatsApp follow-up. SEO.</text>
  <rect x="822" y="166" width="246" height="300" rx="24" fill="#FFFFFF"/>
  <rect x="852" y="200" width="132" height="20" rx="10" fill="#EEF2FF"/>
  <text x="852" y="286" fill="#1E1B4B" font-family="Arial, sans-serif" font-size="70" font-weight="900">3.2x</text>
  <text x="856" y="328" fill="#5B5F7A" font-family="Arial, sans-serif" font-size="22" font-weight="700">avg lead jump</text>
  <rect x="852" y="365" width="180" height="16" rx="8" fill="#EEF2FF"/>
  <rect x="852" y="365" width="150" height="16" rx="8" fill="#10B981"/>
  <rect x="852" y="405" width="180" height="16" rx="8" fill="#EEF2FF"/>
  <rect x="852" y="405" width="122" height="16" rx="8" fill="#F97316"/>
</svg>
